<?xml version="1.0" encoding="utf-8"?>
<!-- Generator: Adobe Illustrator 23.0.3, SVG Export Plug-In . SVG Version: 6.00 Build 0)  -->
<svg version="1.1" id="Layer_1" xmlns="http://www.w3.org/2000/svg" xmlns:xlink="http://www.w3.org/1999/xlink" x="0px" y="0px"
	 viewBox="0 0 219 140" style="enable-background:new 0 0 219 140;" xml:space="preserve">
<style type="text/css">
	.st0{fill:#1E3A5F;}
	.st1{opacity:0.25;fill:none;stroke:#1E3A5F;stroke-width:1.5;enable-background:new    ;}
	.st2{fill:#00BFC4;}
	.st3{opacity:0.3;fill:none;stroke:#00BFC4;stroke-width:1.5;enable-background:new    ;}
	.st4{opacity:0.25;fill:none;stroke:#00BFC4;stroke-width:1.5;enable-background:new    ;}
	.st5{opacity:0.15;}
	.st6{fill:none;stroke:#718096;}
</style>
<g id="haiku-structure">
	<g id="line-one">
		<circle class="st0" cx="36" cy="35" r="7"/>
		<circle class="st0" cx="71" cy="35" r="7"/>
		<circle class="st0" cx="106" cy="35" r="7"/>
		<circle class="st0" cx="141" cy="35" r="7"/>
		<circle class="st0" cx="176" cy="35" r="7"/>
		<line class="st1" x1="26" y1="35" x2="186" y2="35"/>
	</g>
	<g id="line-two">
		<circle class="st0" cx="21" cy="70" r="7"/>
		<circle class="st2" cx="51" cy="70" r="7"/>
		<circle class="st0" cx="81" cy="70" r="7"/>
		<circle class="st2" cx="111" cy="70" r="7"/>
		<circle class="st0" cx="141" cy="70" r="7"/>
		<circle class="st2" cx="171" cy="70" r="7"/>
		<circle class="st0" cx="201" cy="70" r="7"/>
		<line class="st3" x1="11" y1="70" x2="211" y2="70"/>
	</g>
	<g id="line-three">
		<circle class="st2" cx="56" cy="105" r="7"/>
		<circle class="st2" cx="91" cy="105" r="7"/>
		<circle class="st2" cx="126" cy="105" r="7"/>
		<circle class="st2" cx="161" cy="105" r="7"/>
		<circle class="st2" cx="196" cy="105" r="7"/>
		<line class="st4" x1="46" y1="105" x2="206" y2="105"/>
	</g>
	<g class="st5">
		<path class="st6" d="M106,42L81,63"/>
		<path class="st6" d="M141,42v21"/>
		<path class="st6" d="M81,77l10,21"/>
		<path class="st6" d="M141,77l20,21"/>
	</g>
</g>
</svg>
